<mxfile host="app.diagrams.net" modified="2023-12-07T06:20:58.878Z" agent="Mozilla/5.0 (Windows NT 10.0; Win64; x64) AppleWebKit/537.36 (KHTML, like Gecko) Chrome/119.0.0.0 Safari/537.36" version="22.1.7" etag="UDJci2VWVF50-qOvTJa2" type="github">
  <diagram name="Page-1" id="42ylOoLiBur6XUZpX3UK">
    <mxGraphModel>
      <root>
        <mxCell id="0" />
        <mxCell id="1" parent="0" />
      </root>
    </mxGraphModel>
  </diagram>
</mxfile>
